Patient4_TMGait_0pt6_01_left_02_EMG.mot
version=1
nRows=13
nColumns=33
inDegrees=no
endheader
time	1LAddLong	2LGlutMax	3LGlutMed	4LIliopsoas	5LSemiMemb	6LBicFemLong	7LRecFem	8LVastMed	9LVastLat	10LGasMed	11LTibAnt	12lTibPost	13LPeroneusLong	14LSol	15LExtDigLong	16LFlexDigLong	17RAddLong	18RGlutMax	19RGlutMed	20RIliopsoas	21RSemiMemb	22RBicFemLong	23RRecFem	24RVastMed	25RVastLat	26RGasMed	27RTibAnt	28RTibPost	29RPeroneusLong	30RSol	31RExtDigLong	32RFlexDigLong
2.802	-0.026093	-1.2672	0.10239	0.006866	0.11368	-0.18982	0.2948	-0.012665	-0.72144	0.056458	0.12558	0.013123	-0.031128	-0.1738	0.14862	-0.049438	0.13016	-0.058289	0.025024	0.074158	-0.040741	0.067291	0.38101	-0.23422	-0.004578	-0.006104	-0.40253	-0.007019	-0.059052	0.097656	0.000305	-0.010834
2.803	0	-1.1023	0.099182	0.014648	0.12833	-0.15442	0.23682	-0.007019	-1.002	0.000458	0.10071	0.010071	0.031281	-0.10178	0.077057	-0.038605	0.11871	-0.037079	-0.016632	0.050507	-0.027771	0.003052	0.34347	-0.18249	0.022278	-0.003204	-0.085907	-0.008698	-0.048065	0.082397	0.001221	-0.008698
2.804	0.006256	-0.93948	0.050812	0.011902	0.058136	-0.16312	0.1886	-0.01297	-0.8989	-0.094147	0.039673	0.010529	0.051422	0.009308	0.04715	-0.052795	0.094147	-0.00473	-0.039978	0.019989	-0.037842	-0.045013	0.33768	-0.1181	0.034332	-0.006866	0.177	-0.007477	-0.023956	0.015411	-0.001984	-0.004883
2.805	-0.004425	-0.74585	0.036469	0.009613	-0.05249	-0.084076	0.2243	-0.016785	-0.64346	-0.14572	-0.076141	0.017242	-0.057678	-0.008545	0.010529	-0.012054	0.045929	0.040894	-0.042725	-0.020599	-0.050812	-0.086365	0.35675	-0.097809	0.046234	-0.005188	0.23163	-0.006714	-0.093079	0.023499	-0.001221	-0.011597
2.806	-0.013733	-0.54413	0.03418	-0.003204	-0.079193	0.074005	0.2713	-0.008392	-0.62683	-0.21942	-0.059967	0.017242	-0.081024	-0.015564	-0.015717	-0.032349	-0.00061	0.085144	-0.040741	-0.085144	-0.007629	0.005951	0.33005	-0.055542	0.029297	-0.007782	0.014343	-0.009003	-0.074158	0.087128	-0.005035	-0.007935
2.807	-0.009918	-0.28809	0.071869	0.017395	-0.06073	0.19898	0.21454	0.014343	-0.63004	-0.22598	-0.006104	0.009308	-0.055847	-0.042877	0.024719	-0.029602	-0.0354	0.098114	-0.1152	-0.043793	-0.026093	0.031281	0.33722	-0.015564	0.034637	-0.007172	-0.27283	-0.007019	-0.12528	0.079956	-0.004272	-0.009003
2.808	-0.007324	-0.1265	0.061798	0.002441	-0.07431	0.14496	0.16464	0.025177	-0.6247	-0.13443	0.029144	0.008698	-0.043335	-0.002289	0.002594	-0.033417	-0.098419	0.093994	-0.074158	-0.018921	-0.037231	0.076294	0.36529	0.039825	0.046082	-0.005798	-0.21301	-0.003967	-0.1651	0.00351	-0.002136	0.001678
2.809	-0.007782	0.081329	0.017853	0.007477	-0.06073	0.20477	0.075989	0.015717	-0.62546	-0.063629	0.003204	0.016785	-0.025787	-0.057983	0.019073	-0.042114	-0.14694	0.13275	-0.070343	0.023041	-0.065918	0.15121	0.38437	0.027008	0.056	0.000153	0.27893	-0.005493	-0.14679	-0.069733	-0.001221	-0.013428
2.81	-0.021515	0.28824	-0.033112	0.029297	-0.071106	0.088654	0.056763	-0.000916	-0.53696	-0.002289	-0.007324	0.009613	0.003052	-0.021973	0.032043	-0.056305	-0.15167	0.2153	-0.08667	0.071716	-0.027618	0.1207	0.41596	0.031128	0.044708	-0.005798	1.0321	-0.007629	-0.18967	-0.069427	-0.007324	-0.014648
2.811	-0.005188	0.46051	-0.021362	0.013885	-0.024567	-0.21561	0.10834	0.021515	-0.45487	0.027161	0.002289	0.015717	0.0177	-0.00351	0.020294	-0.043182	-0.049744	0.22171	-0.076599	0.007019	0.013123	0.11978	0.40497	0.024261	0.036163	-0.008392	0.55939	-0.008545	-0.1767	-0.096436	-0.002899	-0.016632
2.812	0.010529	0.62668	0.075226	0.000305	0.021515	-0.34943	0.21179	0.04837	-0.3923	0.048828	-0.018768	0.012512	0.029449	0.006104	-0.000305	-0.002594	-0.035706	0.27496	-0.006866	0.021667	0.036621	0.10376	0.40894	0.051117	0.039978	0.002289	-0.24414	-0.007629	-0.022888	-0.13107	-0.005341	-0.012817
2.813	0.005035	0.83771	0.033112	0.020599	0.011292	-0.31403	0.28107	0.049133	-0.33768	0.025177	-0.022888	0.013885	0.046539	-0.2002	-0.010681	-0.029449	-0.021057	0.25971	-0.020752	0.080566	0.007935	0.06012	0.4805	0.019836	0.007172	0.002441	-0.42602	-0.010071	0.044861	-0.17441	-0.002899	-0.019226
2.814	0.019989	0.99564	0.06546	0.00946	0.046082	-0.31906	0.30243	0.028534	-0.34973	-0.029755	-0.025787	0.022583	0.045929	-0.242	-0.028229	-0.074768	-0.039063	0.26642	-0.005341	0.093384	-0.093231	-0.000916	0.5101	-0.01709	0.014038	0.006866	-0.60379	-0.008087	0.023041	-0.15976	-0.002747	-0.018463
